<svg width="527" height="610" viewBox="0 0 527 610" fill="none" xmlns="http://www.w3.org/2000/svg">
<g clip-path="url(#clip0_224_2109)">
<g opacity="0.7">
<path d="M328.53 60.9701C355.575 33.9247 399.425 33.9247 426.47 60.9701L487.03 121.53C514.075 148.575 514.075 192.425 487.03 219.47L426.47 280.03C399.425 307.075 355.575 307.075 328.53 280.03L267.97 219.47C240.925 192.425 240.925 148.575 267.97 121.53L328.53 60.9701Z" fill="#C3E1FE"/>
</g>
<g opacity="0.7">
<path d="M93.1832 355.623C120.229 328.578 164.078 328.578 191.123 355.623L251.683 416.183C278.729 443.228 278.729 487.078 251.683 514.123L191.123 574.683C164.078 601.728 120.229 601.728 93.1832 574.683L32.6234 514.123C5.57799 487.078 5.57799 443.228 32.6234 416.183L93.1832 355.623Z" fill="#BAF0E0"/>
</g>
<mask id="mask0_224_2109" style="mask-type:alpha" maskUnits="userSpaceOnUse" x="38" y="113" width="467" height="427">
<path d="M370.697 113H150.474C141.503 113 133.013 117.054 127.375 124.031L44.8099 226.189C36.1356 236.921 35.9964 252.215 44.474 263.104L251.135 528.544C263.112 543.927 286.41 543.794 298.211 528.276L498.336 265.112C507.314 253.305 506.206 236.686 495.74 226.176L391.742 121.743C386.168 116.146 378.595 113 370.697 113Z" fill="#F1FCFF"/>
</mask>
<g mask="url(#mask0_224_2109)">
<rect x="30.1328" y="79.001" width="484" height="465.383" fill="#58B6D3"/>
<ellipse cx="249.63" cy="45.0983" rx="173.412" ry="174.022" fill="#E4F9FF"/>
<ellipse cx="430.712" cy="447.22" rx="219.906" ry="220.679" fill="#CBF2FE"/>
<path d="M629.496 -0.325039C675.125 -82.7881 702.761 -160.153 669.452 -221.238L561.557 -307.398C605.349 -252.462 614.613 -138.017 482.507 -5.4797C295.007 182.634 90.5939 209.364 167.185 544.374C209.612 729.95 -156.045 908.356 -156.045 908.356L-91.2751 1007.09C-91.2751 1007.09 350.956 813.935 279.147 505.89C207.339 197.844 519.081 199.222 629.496 -0.325039Z" fill="#AAE1F2"/>
</g>
<g clip-path="url(#clip1_224_2109)">
<path d="M293.715 571.912C293.847 571.909 293.975 571.872 294.084 571.806C294.194 571.741 294.28 571.648 294.334 571.54C312.266 539.405 300.559 502.498 305.037 468.191C305.051 468.034 305.008 467.877 304.915 467.743C304.823 467.61 304.685 467.507 304.522 467.449L298.76 465.5C298.638 465.46 298.507 465.445 298.378 465.458C298.249 465.471 298.125 465.51 298.015 465.573C297.905 465.635 297.813 465.72 297.746 465.82C297.678 465.92 297.638 466.033 297.627 466.15C297.828 471.717 297.345 477.287 296.185 482.757C294.979 487.703 292.302 492.259 288.44 495.936C284.578 499.614 279.677 502.273 274.265 503.63C263.86 506.667 250.103 507.96 240.718 501.867C231.752 496.043 223.596 476.008 224.764 466.522C224.791 466.392 224.777 466.258 224.723 466.135C224.669 466.013 224.577 465.906 224.459 465.828C224.341 465.751 224.2 465.704 224.054 465.696C223.908 465.687 223.762 465.715 223.633 465.778L218.589 467.635C218.44 467.683 218.311 467.771 218.219 467.887C218.127 468.004 218.077 468.142 218.074 468.285C217.252 513.58 216.807 530.234 219.814 541.481C222.925 553.073 230.161 563.312 237.415 573.208C237.516 573.338 237.66 573.435 237.826 573.485C237.993 573.536 238.172 573.537 238.339 573.488C241.948 572.389 261.189 566.623 268.905 570.149C276.621 573.674 291.041 572.187 293.715 571.912Z" fill="#034078"/>
<path d="M89.7281 204.249C89.2808 223.82 97.2428 235.073 97.2428 285.888C102.228 284.689 106.514 284.909 108.254 284.125C106.716 274.665 108.701 272.376 105.99 242.1C103.652 215.973 100.729 210.617 102.807 202.578C98.503 203.445 94.1298 204.004 89.7281 204.249Z" fill="#38C98C"/>
<path d="M448.507 354.727C444.625 353.405 440.388 353.179 436.36 354.078C434.384 354.784 432.603 355.872 431.144 357.265C429.684 358.658 428.581 360.323 427.911 362.142C427.456 363.108 427.322 364.172 427.525 365.206C427.728 366.24 428.26 367.198 429.056 367.964C429.851 368.731 430.877 369.273 432.008 369.524C433.139 369.775 434.326 369.725 435.426 369.379C438.718 368.638 441.288 366.467 444.687 366.131C446.196 365.961 447.728 366.146 449.134 366.666C450.541 367.187 451.775 368.025 452.716 369.101C457.473 374.558 455.39 383.944 449.421 387.933V388.027C464.955 384.526 470.544 368.252 451.789 357.319C451.658 357.225 451.553 357.106 451.48 356.97C451.407 356.834 451.369 356.686 451.369 356.535C451.369 356.384 451.407 356.235 451.48 356.1C451.553 355.964 451.658 355.845 451.789 355.751C451.057 355.287 450.261 354.91 449.421 354.631C449.137 354.754 448.815 354.788 448.507 354.727Z" fill="#38C98C"/>
<path d="M380.166 248.965C371.834 262.54 365.042 276.838 359.891 291.641H360.097C381.607 282.827 390.568 262.79 393.957 242.657C393.053 243.107 380.767 248.965 380.166 248.965Z" fill="#CDF96F"/>
<path d="M396.017 207.217C395.801 204.993 394.487 197.164 391.077 196.179C386.771 194.929 387.374 201.187 387.064 203.322C385.729 212.506 387.476 224.288 381.816 232.359C381.762 232.946 381.762 233.535 381.816 234.122C386.549 231.338 391.18 228.462 395.709 225.494C396.261 219.414 396.364 213.309 396.017 207.217Z" fill="#CDF96F"/>
<path d="M94.7712 355.561L78.405 316.137C78.1744 315.606 77.8227 315.125 77.3728 314.724C76.9228 314.324 76.3846 314.013 75.7929 313.811C75.2012 313.61 74.5693 313.523 73.9379 313.556C73.3066 313.589 72.6899 313.741 72.1278 314.002L13.1563 343.315C12.6345 343.576 12.1764 343.928 11.8094 344.352C11.4424 344.776 11.1739 345.263 11.0201 345.782C10.8663 346.302 10.8303 346.844 10.9143 347.377C10.9982 347.909 11.2004 348.421 11.5087 348.881L39.4004 390.35C39.7145 390.825 40.1363 391.235 40.6383 391.554C41.1402 391.872 41.711 392.091 42.3133 392.197C42.9156 392.302 43.5359 392.292 44.1336 392.167C44.7313 392.042 45.2929 391.804 45.7819 391.47L93.3299 360.2C94.0888 359.667 94.6384 358.929 94.8978 358.094C95.1572 357.259 95.1128 356.371 94.7712 355.561ZM79.5381 330.141C78.1068 330.54 76.6555 330.883 75.2167 331.261C75.5248 338.877 74.2997 346.39 68.0102 352.134C58.0429 361.239 36.2022 362.682 42.2805 380.152C42.7005 381.357 40.7373 381.72 40.3248 380.615C35.6033 370.311 43.2198 363.009 52.7796 358.536C66.3875 352.169 72.9081 347.125 72.5403 331.911C71.099 332.189 69.5584 332.536 68.0102 332.744C66.7677 332.912 65.222 331.718 66.1589 330.612C67.9548 327.869 69.9471 325.234 72.1229 322.725C72.2016 322.647 72.2975 322.584 72.4045 322.542C72.5115 322.499 72.6272 322.477 72.7441 322.477C72.8611 322.477 72.9768 322.499 73.0837 322.542C73.1907 322.584 73.2867 322.647 73.3654 322.725C73.8798 322.819 77.3613 325.809 79.4387 327.178C80.8651 328.114 81.0937 329.707 79.5381 330.141Z" fill="#CDF96F"/>
<path d="M262.222 388.773C264.784 388.179 267.373 387.861 269.838 387.205C270.092 387.139 270.307 386.986 270.437 386.779C270.568 386.572 270.603 386.327 270.536 386.097C270.469 385.867 270.304 385.67 270.078 385.547C269.851 385.425 269.581 385.387 269.324 385.442C266.745 385.838 264.2 386.395 261.707 387.111C261.49 387.192 261.313 387.343 261.21 387.534C261.106 387.725 261.084 387.943 261.148 388.147C261.211 388.352 261.355 388.529 261.553 388.644C261.751 388.759 261.989 388.805 262.222 388.773Z" fill="#191919"/>
<path d="M239.067 389.425C236.393 389.054 233.806 388.267 231.142 387.663C230.92 387.626 230.692 387.664 230.5 387.77C230.307 387.877 230.166 388.043 230.102 388.238C230.038 388.433 230.056 388.642 230.153 388.825C230.251 389.008 230.419 389.153 230.628 389.231C233.261 390.095 235.986 390.717 238.759 391.085C239.892 391.179 240.2 389.517 239.067 389.425Z" fill="#191919"/>
<path d="M253.989 406.494C245.555 408.646 247.004 399.722 247.401 395.547C247.895 391.135 248.755 386.763 249.973 382.467C250 382.382 250.008 382.293 249.997 382.205C249.986 382.117 249.956 382.032 249.908 381.954C249.861 381.877 249.797 381.809 249.72 381.754C249.643 381.698 249.554 381.657 249.46 381.633C249.366 381.609 249.267 381.601 249.169 381.611C249.071 381.621 248.977 381.649 248.891 381.692C248.805 381.734 248.729 381.792 248.668 381.862C248.607 381.931 248.561 382.01 248.534 382.096C246.141 388.336 238.323 413.314 254.605 408.442C254.877 408.358 255.103 408.182 255.236 407.952C255.369 407.722 255.4 407.455 255.321 407.205C255.242 406.955 255.06 406.743 254.812 406.61C254.564 406.478 254.27 406.436 253.989 406.494Z" fill="#191919"/>
<path d="M258.312 420.597C261.458 421.406 266.89 418.167 267.884 413.36C267.952 413.163 267.931 412.95 267.824 412.767C267.718 412.584 267.536 412.447 267.317 412.385C267.099 412.324 266.862 412.343 266.659 412.439C266.457 412.535 266.304 412.699 266.236 412.896C265.498 414.516 264.245 415.904 262.635 416.886C261.207 417.829 259.45 418.006 258.003 418.834C257.821 418.933 257.676 419.079 257.586 419.253C257.497 419.426 257.466 419.62 257.499 419.809C257.532 419.999 257.627 420.175 257.772 420.315C257.917 420.455 258.105 420.554 258.312 420.597Z" fill="#191919"/>
<path d="M315.028 423.751C315.209 423.6 315.341 423.409 315.413 423.197C315.486 422.985 315.494 422.759 315.438 422.543C314.707 419.096 313.997 415.586 312.968 412.154C312.993 412.199 315.142 414.618 316.263 415.68C316.362 415.774 316.467 415.864 316.571 415.864C316.656 416.109 316.818 416.327 317.038 416.491C317.257 416.656 317.525 416.759 317.808 416.788C318.092 416.818 318.379 416.773 318.634 416.658C318.89 416.544 319.103 416.365 319.248 416.144C321.874 412.963 325.845 407.269 325.318 403.34C325.033 401.203 323.783 400.735 322.026 399.532C314.13 394.399 307.564 387.784 302.779 380.142C298.356 372.627 300.414 363.629 295.369 356.208C289.505 347.579 274.682 344.336 269.028 354.073C261.414 346.188 249.991 340.163 238.155 343.868C228.068 347.026 222.82 355.928 218.188 364.371C215.4 368.598 212.886 372.967 210.658 377.457C203.843 388.537 195.92 399.034 186.988 408.817C184.926 411.041 178.455 415.124 178.753 418.372C178.967 420.691 182.858 423.852 184.208 425.702C186.658 429.062 189.046 432.287 191.414 435.627C191.433 435.802 191.5 435.97 191.608 436.117C191.716 436.263 191.863 436.383 192.035 436.466C192.208 436.548 192.4 436.591 192.595 436.591C192.79 436.59 192.982 436.546 193.154 436.463C197.073 434.359 200.642 431.767 203.755 428.762C202.394 432.291 200.558 435.656 198.288 438.781C198.186 438.875 198.186 439.059 198.084 439.153C197.963 439.279 197.887 439.436 197.869 439.602C197.85 439.768 197.889 439.935 197.98 440.08C200.45 443.978 205.509 445.709 209.816 447.41C213.18 448.738 224.003 453.767 227.519 452.049C229.865 450.902 230.091 447.038 230.501 445.091C236.055 447.15 242.214 447.477 247.998 446.019C248.887 459.683 239.969 458.641 231.425 462.819C231.187 462.945 231.001 463.139 230.895 463.369C230.789 463.6 230.77 463.855 230.84 464.097C230.91 464.338 231.065 464.552 231.283 464.707C231.5 464.861 231.767 464.948 232.044 464.953C237.442 464.546 242.563 462.626 246.691 459.463C254.203 467.906 267.274 464.008 274.684 457.422C279.07 461.996 285.065 465.075 291.667 466.143C293.617 466.445 294.445 463.739 292.489 463.455C284.557 462.288 276.394 457.245 274.995 449.909C274.677 448.241 274.376 446.57 274.17 444.807C278.342 444.958 282.506 444.358 286.418 443.044C289.502 442.105 294.805 440.958 297.225 438.871C298.905 437.419 296.033 432.823 295.578 431.17C295.295 430.144 295.165 429.037 294.959 428.016C296.248 429.936 298.054 431.532 300.21 432.655C300.269 432.853 300.374 433.037 300.52 433.195C300.665 433.353 300.847 433.48 301.052 433.568C301.257 433.656 301.482 433.703 301.709 433.706C301.937 433.708 302.162 433.666 302.369 433.582C307.449 431.33 311.806 427.946 315.028 423.751ZM236.393 425.415C229.817 421.688 226.306 413.727 224.35 407.139C224.471 406.967 224.536 406.768 224.537 406.564C224.539 406.36 224.477 406.161 224.359 405.987C224.241 405.813 224.072 405.673 223.87 405.582C223.668 405.49 223.442 405.452 223.217 405.47C218.893 405.833 216.359 404.843 214.768 401.109C214.248 400.117 213.934 399.048 213.841 397.955C213.797 397.331 213.91 396.706 214.171 396.127C214.432 395.547 214.835 395.029 215.35 394.61C215.864 394.19 216.477 393.881 217.143 393.705C217.809 393.529 218.51 393.491 219.194 393.594C220.325 393.694 222.385 394.801 223.312 394.151C224.239 393.502 223.62 391.925 223.62 390.997C223.62 389.976 225.158 378.577 225.782 378.843C228.835 379.999 232.189 380.353 235.456 379.865C239.265 379.417 239.882 374.298 239.777 373.926C240.675 375.813 241.779 377.613 243.072 379.302C244.315 380.046 252.041 379.143 253.467 378.375C255.132 377.479 256.039 372.159 256.245 370.862C256.975 372.736 257.977 374.513 259.227 376.148C260.798 377.893 277.547 373.552 277.547 373.366C277.753 375.221 278.563 376.986 278.884 378.742C279.237 381.438 279.819 384.105 280.623 386.721C281.12 388.115 284.328 387.091 285.563 387.371C290.091 388.112 292.73 391.896 290.091 395.628C289.622 396.643 288.756 397.469 287.657 397.947C286.557 398.426 285.301 398.524 284.127 398.224C282.373 397.87 282.196 400.267 282.171 401.286C281.739 408.101 279.402 414.707 275.377 420.489C271.352 425.957 263.76 428.898 256.852 429.953C249.646 430.746 242.367 429.132 236.393 425.415ZM248.226 457.978C253.572 451.554 250.868 440.282 248.639 432.467C250.889 432.773 253.174 432.803 255.433 432.558C260.507 432.024 265.409 430.573 269.846 428.291C269.805 433.501 270.149 438.708 270.875 443.877C271.113 447.658 271.873 451.398 273.138 455.01C273.125 455.01 273.111 455.012 273.098 455.016C273.086 455.021 273.074 455.028 273.065 455.037C273.055 455.046 273.048 455.056 273.043 455.068C273.038 455.079 273.036 455.092 273.037 455.104C266.444 462.436 256.357 463.921 248.226 457.982V457.978Z" fill="#191919"/>
<path d="M211.791 536.838C200.573 544.663 187.509 550.06 173.609 552.61V552.518C164.449 532.665 161.258 513.094 161.154 491.843C178.922 480.247 187.915 474.819 212.924 469.667C214.261 469.391 213.647 467.543 212.41 467.812C187.234 473.258 178.539 475.634 149.216 497.405C148.471 497.949 149.427 499.083 150.245 498.612C153.249 496.879 156.209 494.995 159.096 493.046C156.833 513.363 161.773 534.979 170.828 553.441C170.871 553.547 170.939 553.644 171.028 553.724C171.117 553.804 171.224 553.866 171.342 553.904C171.414 554.186 171.605 554.431 171.874 554.587C172.144 554.743 172.47 554.798 172.784 554.74C187.646 552.627 201.63 547.028 213.334 538.504C214.467 537.862 212.912 536.083 211.791 536.838Z" fill="#191919"/>
<path d="M364.3 476.703C364.3 476.094 363.982 476.047 363.579 475.684C344.487 465.452 343.744 462.069 312.016 456.015C311.801 455.976 311.579 456.014 311.395 456.119C311.21 456.225 311.078 456.39 311.025 456.581C310.972 456.772 311.003 456.974 311.111 457.145C311.219 457.316 311.396 457.443 311.606 457.5C340.432 465.32 337.556 464.343 362.24 477.631C360.284 493.866 359.668 509.916 355.861 525.965C340.73 528.378 327.982 525.486 314.384 519.566C313.141 519.024 312.021 520.668 313.251 521.235C327.107 527.619 341.657 531.904 357.198 528.286C357.495 528.297 357.787 528.209 358.017 528.037C358.246 527.866 358.397 527.624 358.44 527.359C362.658 510.749 364.625 493.74 364.3 476.703Z" fill="#191919"/>
<path d="M114.737 435.532C126.217 458.042 135.148 481.539 141.393 505.666C141.498 505.976 141.733 506.237 142.048 506.394C142.362 506.551 142.732 506.592 143.08 506.507C143.427 506.423 143.724 506.22 143.909 505.942C144.094 505.664 144.151 505.332 144.07 505.016C137.649 480.886 128.403 457.438 116.486 435.068C116.582 435.079 116.68 435.068 116.77 435.036C116.86 435.003 116.94 434.95 117 434.882C123.998 430.615 133.18 424.854 132.437 416.234C132.425 416.013 132.328 415.803 132.164 415.64C131.999 415.476 131.777 415.368 131.535 415.336C131.292 415.303 131.045 415.347 130.834 415.46C130.624 415.573 130.463 415.749 130.38 415.956C128.526 423.841 122.86 428.659 115.967 433.305C115.798 433.4 115.667 433.541 115.593 433.708C115.519 433.875 115.506 434.059 115.557 434.232C115.403 434.261 115.258 434.319 115.131 434.403C115.005 434.486 114.899 434.592 114.821 434.715C114.744 434.838 114.696 434.974 114.682 435.115C114.667 435.256 114.686 435.398 114.737 435.532Z" fill="#191919"/>
<path d="M158.585 537.673C152.41 540.272 146.235 543.71 139.237 543.612C132.98 543.501 126.996 541.283 122.461 537.396C113.821 529.968 111.646 518.75 109.39 508.724C104.435 486.74 96.4156 463.393 101.155 440.908C101.371 439.888 99.6287 439.425 99.415 440.444C97.0468 452.854 97.152 465.546 99.7257 477.924C102.211 491.653 105.009 505.747 108.781 519.207C111.38 528.478 116.079 538.247 125.865 543.049C137.997 549.008 148.042 543.627 159.522 539.618C159.673 539.568 159.811 539.491 159.928 539.392C160.044 539.292 160.137 539.172 160.2 539.039C160.264 538.906 160.296 538.763 160.296 538.618C160.295 538.473 160.262 538.33 160.198 538.197C160.134 538.065 160.041 537.945 159.924 537.846C159.807 537.747 159.668 537.671 159.517 537.622C159.366 537.573 159.206 537.552 159.045 537.561C158.885 537.57 158.729 537.608 158.585 537.673Z" fill="#191919"/>
<path d="M94.2566 438.314C82.3932 441.957 67.2695 444.81 59.8816 432.656C59.2604 431.637 57.5258 432.555 58.1421 433.583C65.4082 445.937 82.5597 447.153 94.9897 440.079C95.9911 439.499 95.4892 437.936 94.2566 438.314Z" fill="#191919"/>
<path d="M68.0162 422.725C67.6012 421.986 66.155 422.45 66.473 423.283C69.47 431.105 81.4626 436.32 89.5264 430.796C89.7113 430.685 89.8478 430.52 89.9126 430.328C89.9774 430.137 89.9665 429.931 89.8818 429.746C89.797 429.561 89.6437 429.408 89.4479 429.314C89.2521 429.219 89.026 429.189 88.8082 429.228C84.5837 429.994 80.9109 430.921 76.6615 429.6C72.8907 428.42 69.7857 425.951 68.0162 422.725Z" fill="#191919"/>
<path d="M94.9776 423.656C92.0342 423.76 89.1363 422.976 86.7423 421.429C84.7841 420.043 81.4939 417.534 81.4939 415.03C81.4939 414.194 79.9731 413.91 79.8464 414.844C79.414 418.007 82.4308 421.141 84.8909 423.101C86.2311 424.293 87.9197 425.119 89.76 425.48C91.6003 425.841 93.5166 425.724 95.2857 425.141C95.4714 425.077 95.6262 424.955 95.7232 424.799C95.8202 424.642 95.8533 424.46 95.8167 424.283C95.7801 424.107 95.6761 423.947 95.5228 423.833C95.3696 423.718 95.1766 423.656 94.9776 423.656Z" fill="#191919"/>
<path d="M433.273 420.5C428.013 423.545 423.187 425.993 416.599 425.603C413.617 425.426 410.116 423.934 407.029 424.304C406.762 424.204 406.466 424.186 406.186 424.253C405.907 424.321 405.66 424.469 405.484 424.676C405.382 424.676 405.28 424.768 405.175 424.768C404.661 424.953 404.765 425.603 405.074 425.888C401.162 452.42 403.583 479.614 397.663 505.952C395.725 514.583 394.46 523.834 384.694 528.032C376.966 531.353 366.683 531.268 358.353 532.762C357.324 532.946 357.732 534.42 358.763 534.248C376.014 531.351 394.686 532.299 398.697 513.465C408.309 468.331 402.193 458.688 407.549 426.445C417.016 428.486 427.202 429.044 434.615 422.178C435.525 421.325 434.401 419.849 433.273 420.5Z" fill="#191919"/>
<path d="M411.351 412.892C410.017 412.689 409.395 414.563 410.735 414.747C418.351 416.232 427.511 415.213 433.274 410.016C433.489 409.82 433.618 409.56 433.635 409.284C433.652 409.008 433.557 408.736 433.367 408.519C433.178 408.303 432.906 408.156 432.605 408.107C432.303 408.058 431.992 408.11 431.73 408.253C425.337 411.911 419.194 414.086 411.351 412.892Z" fill="#191919"/>
<path d="M423.705 399.349C420.958 401.553 417.714 403.192 414.195 404.153C410.677 405.114 406.969 405.374 403.328 404.916C402.401 404.824 402.085 406.329 403.121 406.484C407.078 407.077 411.13 406.895 415.001 405.951C418.873 405.007 422.474 403.322 425.558 401.012C426.806 400.102 424.957 398.348 423.705 399.349Z" fill="#191919"/>
<path d="M368.743 483.494C376.161 462.066 381.914 439.534 382.431 417.069C382.427 416.92 382.375 416.775 382.283 416.651C382.19 416.528 382.06 416.431 381.909 416.372C381.757 416.314 381.589 416.295 381.426 416.32C381.263 416.345 381.112 416.411 380.989 416.511C380.887 416.511 380.785 416.419 380.681 416.419C368.229 416.419 370.694 400.923 377.284 395.822C377.428 395.705 377.518 395.544 377.537 395.371C377.556 395.197 377.503 395.023 377.387 394.883C377.271 394.743 377.102 394.647 376.912 394.614C376.722 394.58 376.525 394.612 376.36 394.702C366.845 400.717 366.375 418.267 380.373 419.011C377.745 440.623 372.992 461.983 366.169 482.837C366.072 483.145 366.115 483.475 366.288 483.754C366.461 484.033 366.75 484.239 367.092 484.326C367.433 484.413 367.799 484.374 368.109 484.218C368.418 484.062 368.647 483.801 368.743 483.494Z" fill="#191919"/>
<path d="M112.578 409.83C112.908 409.83 113.174 409.848 113.914 409.181C120.502 400.832 130.067 394.435 138.516 387.659C147.059 380.795 155.394 373.836 163.833 366.878C165.098 366.878 165.18 365.458 164.348 364.929C161.992 363.431 156.833 363.733 154.261 363.538C145.004 362.83 110.525 359.67 105.272 358.621C97.3395 339.324 85.9408 320.176 78.8188 300.545C78.7455 300.316 78.576 300.123 78.3463 300.005C78.1167 299.888 77.8452 299.856 77.5898 299.916C77.3344 299.977 77.1155 300.125 76.9797 300.329C76.8439 300.533 76.802 300.777 76.8631 301.009V301.092C76.6845 301.022 76.4921 300.987 76.2978 300.987C76.1034 300.987 75.911 301.022 75.7324 301.092C49.3641 313.033 23.4704 325.895 0.702805 343.036C0.0865254 343.499 0.60092 344.427 1.2172 344.518C7.70057 355.929 14.8226 367.239 21.7955 378.475C24.7526 383.359 28.0519 388.069 31.6734 392.575C33.9546 395.349 36.9242 400.091 40.7312 401.296C40.8356 401.854 49.9878 402.714 53.3898 403.245C72.738 406.257 94.6557 409.83 112.578 409.83ZM30.2445 386.082C22.1906 375.074 14.2187 360.366 2.96913 343.685C26.4649 328.083 51.4723 314.42 77.6881 302.863C83.3465 322.161 94.36 339.879 101.77 358.621C55.9568 392.018 43.6635 394.325 41.6755 398.142C40.341 398.142 42.3042 400.581 30.2445 386.082ZM43.3156 399.905C44.9607 397.492 49.4983 395.835 51.7646 394.616C56.4637 392.078 71.667 382.71 76.053 379.866C108.067 359.101 101.914 360.154 105.59 361.126C115.597 362.387 159.892 367.138 160.55 367.156C122.378 396.292 117.028 400.451 111.752 407.14C85.6997 407.14 51.9733 399.253 43.3156 399.905Z" fill="#191919"/>
<path d="M41.4574 327.266C41.9774 327.249 42.47 327.051 42.8313 326.714C43.1927 326.377 43.3947 325.926 43.3947 325.457C43.3947 324.988 43.1927 324.537 42.8313 324.2C42.47 323.862 41.9774 323.665 41.4574 323.648C41.188 323.64 40.9193 323.68 40.6676 323.767C40.4159 323.854 40.1862 323.986 39.9922 324.155C39.7982 324.324 39.6439 324.526 39.5386 324.75C39.4332 324.973 39.3789 325.214 39.3789 325.457C39.3789 325.7 39.4332 325.94 39.5386 326.164C39.6439 326.388 39.7982 326.59 39.9922 326.759C40.1862 326.928 40.4159 327.06 40.6676 327.147C40.9193 327.234 41.188 327.274 41.4574 327.266Z" fill="#191919"/>
<path d="M109.798 368.457C111.04 367.812 109.902 365.951 108.667 366.695C93.8464 374.579 82.4502 386.588 67.7042 394.618C67.4996 394.729 67.3521 394.909 67.2944 395.117C67.2366 395.326 67.2732 395.547 67.3961 395.732C67.519 395.916 67.7182 396.049 67.9498 396.101C68.1814 396.153 68.4265 396.12 68.6311 396.009C75.5898 392.544 82.2015 388.54 88.3918 384.043C95.5064 378.676 101.692 372.669 109.798 368.457Z" fill="#191919"/>
<path d="M121.324 369.847C108.292 377.599 94.4858 387.142 84.3768 397.957C83.8574 398.51 84.5681 399.426 85.1993 398.978C97.7113 390.058 110.017 380.305 122.457 371.238C123.369 370.573 122.253 369.293 121.324 369.847Z" fill="#191919"/>
<path d="M132.852 373.746C133.779 372.726 132.248 371.255 131.204 372.263C121.264 381.85 111.185 390.855 100.226 399.537C99.2942 400.274 100.619 401.282 101.469 400.657C112.841 392.592 123.349 383.582 132.852 373.746Z" fill="#191919"/>
<path d="M134.398 354.725C135.106 356.123 137.074 355.283 137.074 353.984C150.762 348.787 164.161 343.169 177.828 337.934C177.98 337.877 178.116 337.791 178.227 337.681C178.338 337.572 178.421 337.442 178.47 337.3C178.519 337.159 178.533 337.009 178.511 336.862C178.489 336.715 178.432 336.574 178.343 336.449C179.063 337.654 181.325 337.099 180.813 335.614C178.328 328.383 175.843 321.121 172.99 314.092C172.943 313.945 172.848 313.816 172.716 313.72C172.585 313.624 172.424 313.567 172.255 313.557C172.086 313.547 171.918 313.584 171.774 313.662C171.629 313.741 171.515 313.858 171.447 313.998C165.076 309.106 157.973 305.046 150.347 301.938C150.186 301.869 150.01 301.833 149.832 301.833C149.654 301.833 149.479 301.869 149.318 301.938C149.107 301.923 148.895 301.955 148.702 302.032C138.409 305.277 127.293 308.062 118.136 313.534C117.977 313.518 117.816 313.538 117.668 313.592C117.519 313.646 117.388 313.732 117.286 313.844C117.184 313.955 117.114 314.087 117.083 314.228C117.052 314.37 117.06 314.516 117.107 314.654C120.735 328.609 127.907 341.879 134.398 354.725ZM149.835 304.35C150.349 311.122 152.894 317.79 154.775 324.297C154.888 324.581 155.103 324.823 155.387 324.983C155.671 325.144 156.006 325.213 156.339 325.181C156.672 325.149 156.983 325.016 157.222 324.805C157.461 324.594 157.615 324.317 157.658 324.017C162.583 322.077 167.394 319.909 172.071 317.521C173.493 324.036 175.63 330.406 178.452 336.539C178.284 336.274 178.016 336.072 177.697 335.97C177.377 335.868 177.028 335.873 176.713 335.983C163.343 341.359 149.85 346.735 136.575 352.311C130.611 340.159 123.606 328.19 119.49 315.295C129.95 309.157 148.582 305.481 149.835 304.35Z" fill="#191919"/>
<path d="M156.421 286.631C170.32 288.181 182.695 280.881 184.107 267.797C184.769 262.183 183.226 256.536 179.748 251.841C176.269 247.146 171.074 243.699 165.067 242.1C163.941 241.8 163.108 243.401 164.244 243.863C173.488 247.608 181.463 254.064 182.357 263.716C182.575 266.39 182.152 269.074 181.118 271.588C180.085 274.102 178.464 276.387 176.365 278.287C174.267 280.187 171.74 281.658 168.956 282.602C166.172 283.545 163.196 283.938 160.228 283.755C147.468 283.096 136.253 278.191 135.94 265.387C135.791 259.265 137.182 252.321 142.321 247.946C146.965 244.229 152.808 241.952 158.993 241.45C160.33 241.34 160.333 239.501 158.993 239.593C152.276 240.02 145.872 242.322 140.674 246.181C135.018 250.455 133.684 256.758 132.955 263.158C131.328 277.447 141.193 284.931 156.421 286.631Z" fill="#191919"/>
<path d="M164.241 252.399C165.785 252.399 165.683 250.446 164.241 250.264C162.073 250.009 159.871 250.135 157.756 250.636C157.447 249.245 157.177 247.845 156.831 246.461C156.764 246.237 156.608 246.043 156.392 245.917C156.177 245.79 155.917 245.739 155.663 245.774C155.409 245.808 155.177 245.926 155.013 246.104C154.848 246.282 154.762 246.509 154.771 246.741C154.669 248.382 154.669 250.027 154.771 251.669C153.621 252.145 152.575 252.804 151.685 253.615C148.907 255.842 145.838 259.914 147.773 263.357C149.543 266.493 152.92 265.861 155.904 264.925C156.317 268.173 156.831 271.327 157.346 274.573C155.233 274.058 153.336 272.994 151.891 271.513C150.219 269.862 147.555 272.263 149.215 273.923C151.453 276.044 154.512 277.306 157.756 277.449C157.86 278.376 158.056 279.306 158.168 280.233C158.451 282.554 162.462 281.535 162.08 279.306C161.968 278.656 161.873 277.913 161.771 277.263C164.362 276.996 166.735 275.829 168.387 274.011C170.039 272.192 170.84 269.865 170.62 267.523C170.315 263.368 165.755 260.013 159.609 260.936C159.301 258.523 158.889 256.008 158.476 253.606C160.32 252.947 162.264 252.54 164.241 252.399ZM166.918 264.737C170.196 267.073 166.702 272.055 164.448 273.457C163.522 274.048 162.47 274.459 161.359 274.665C160.844 271.047 160.432 267.427 159.918 263.809C161.086 263.476 162.323 263.387 163.536 263.547C164.749 263.708 165.905 264.115 166.918 264.737ZM155.487 261.769C153.327 262.51 150.34 263.337 151.575 258.893C152.176 257.325 153.384 256.005 154.977 255.174C154.997 257.38 155.167 259.582 155.487 261.769Z" fill="#191919"/>
<path d="M43.1061 290.714C43.1445 290.913 43.2568 291.095 43.4247 291.23C43.5926 291.365 43.8062 291.444 44.0305 291.455C48.5607 291.733 53.0859 291.177 57.616 291.269C57.807 291.275 57.9973 291.246 58.1751 291.183C58.3529 291.12 58.5145 291.025 58.6497 290.903C58.7849 290.782 58.8909 290.636 58.961 290.476C59.0312 290.316 59.0639 290.144 59.0573 289.972C60.1308 288.518 58.1304 288.451 58.1304 246.924C58.1214 246.71 58.0366 246.505 57.8886 246.338C57.7405 246.171 57.537 246.052 57.3079 245.997C57.1336 245.844 56.9215 245.73 56.689 245.666C56.4565 245.602 56.2104 245.588 55.971 245.627C52.5789 246.209 48.8837 246.059 45.4718 246.747C45.2448 246.792 45.0448 246.913 44.9114 247.084C44.778 247.256 44.7208 247.467 44.7512 247.674C44.443 247.765 44.2376 248.043 44.1349 248.508C42.4503 262.212 41.7944 276.003 42.1718 289.786C42.152 289.905 42.1618 290.026 42.2004 290.141C42.239 290.255 42.3054 290.361 42.3949 290.45C42.4843 290.539 42.5945 290.608 42.7175 290.654C42.8405 290.7 42.9733 290.72 43.1061 290.714ZM55.6603 248.409C53.379 261.788 53.4142 275.405 55.7647 288.774C52.0596 289.146 48.2525 289.146 44.5474 289.609C45.5762 276.156 47.2213 262.241 46.8112 248.79C49.763 249.129 52.7578 249 55.6603 248.409Z" fill="#191919"/>
<path d="M66.5724 289.691C69.0818 290.125 71.6313 290.342 74.1864 290.341C76.7541 290.564 79.3396 290.564 81.9073 290.341C82.23 290.286 82.5247 290.139 82.7482 289.922C82.9718 289.705 83.1125 289.43 83.1498 289.136C83.6423 289.073 84.0919 288.849 84.4128 288.507C84.7337 288.164 84.9033 287.727 84.8893 287.279C84.683 267.423 83.2417 247.667 81.5942 227.813C81.5887 227.585 81.5185 227.361 81.3904 227.164C81.4477 226.906 81.4079 226.638 81.2774 226.403C81.1469 226.168 80.9331 225.978 80.6698 225.865C77.407 224.393 69.8799 224.946 66.5699 225.493C66.3532 225.534 66.1496 225.618 65.9742 225.74C65.7988 225.861 65.6562 226.017 65.557 226.196C65.4578 226.374 65.4047 226.57 65.4015 226.77C65.3983 226.969 65.4452 227.167 65.5386 227.348C65.3348 237.739 65.2305 248.036 65.2305 258.428C65.2305 267.983 63.8935 278.467 65.7448 287.837C65.635 288.003 65.5692 288.19 65.5526 288.382C65.536 288.575 65.569 288.769 65.6491 288.949C65.7292 289.128 65.8542 289.288 66.0143 289.417C66.1744 289.546 66.3654 289.64 66.5724 289.691ZM78.5004 228.555C79.7429 248.043 80.3517 267.612 80.5579 287.187C78.4735 286.986 76.3754 286.924 74.2808 287.001C72.5413 287.001 70.6776 286.909 68.8138 287.001C70.357 277.817 69.0151 267.706 68.9157 258.428C68.8089 248.408 68.5057 238.389 68.2994 228.369C71.7029 228.178 75.1181 228.24 78.5103 228.555H78.5004Z" fill="#191919"/>
<path d="M92.9195 287.003C92.9081 287.27 92.9676 287.535 93.0929 287.777C93.2183 288.019 93.4059 288.23 93.6401 288.394C94.3856 289.29 94.9074 288.766 95.3796 288.766C95.5573 288.78 95.7358 288.748 95.894 288.674C100.628 287.93 108.965 289.693 111.641 285.986C111.777 285.787 111.84 285.554 111.822 285.321C111.803 285.089 111.705 284.867 111.54 284.687C111.54 284.593 111.641 284.501 111.641 284.409C113.905 271.327 111.505 256.579 110.098 243.495C108.632 229.872 104.952 215.818 104.952 201.654C105.09 201.427 105.16 201.171 105.156 200.912C105.152 200.652 105.074 200.398 104.929 200.174C104.784 199.95 104.577 199.764 104.328 199.633C104.08 199.502 103.798 199.432 103.511 199.428C100.984 199.436 98.4662 199.685 95.9984 200.171C93.296 200.504 90.6158 200.968 87.9693 201.562C87.7264 201.631 87.506 201.753 87.3277 201.917C87.1495 202.08 87.0189 202.281 86.9476 202.502C86.8763 202.722 86.8665 202.955 86.919 203.179C86.9715 203.404 87.0848 203.613 87.2487 203.789C87.1677 203.898 87.1316 204.028 87.1468 204.159C85.6111 224.619 92.7281 234.611 92.9195 287.003ZM102.698 202.759C101.75 207.928 101.855 213.209 103.006 218.345C109.258 260.949 106.443 272.743 108.153 284.306C107.934 284.326 107.722 284.389 107.534 284.492C104.475 285.258 100.471 285.067 97.139 286.06C97.139 235.232 89.0304 223.895 89.6268 204.421C92.7803 203.941 100.283 203.339 102.698 202.759Z" fill="#191919"/>
<path d="M452.519 355.562C451.49 355.19 450.864 356.682 451.798 357.231C470.801 368.316 464.599 384.85 449.328 387.939C455.504 383.949 457.551 374.499 452.725 369.013C451.781 367.939 450.547 367.103 449.141 366.583C447.735 366.063 446.205 365.878 444.696 366.045C441.297 366.383 438.628 368.56 435.435 369.291C434.335 369.638 433.147 369.69 432.016 369.439C430.884 369.189 429.858 368.648 429.061 367.881C428.265 367.114 427.733 366.155 427.531 365.121C427.328 364.087 427.463 363.022 427.92 362.055C428.532 360.261 429.592 358.617 431.02 357.25C432.448 355.883 434.205 354.829 436.155 354.171C436.257 354.171 436.257 354.077 436.359 353.985C440.377 353.001 444.642 353.229 448.503 354.634C449.44 354.986 450.153 353.514 449.224 353.149C444.28 351.156 438.674 350.96 433.573 352.602C428.473 354.244 424.273 357.598 421.849 361.964C417.011 370.962 419.998 384.966 430.905 389.33C442.022 393.778 459.152 391.854 464.355 380.887C466.462 376.11 466.402 370.778 464.188 366.041C461.974 361.303 457.783 357.54 452.519 355.562ZM445.211 387.289C445.082 387.344 444.966 387.421 444.871 387.516C444.775 387.61 444.701 387.721 444.654 387.842C444.606 387.963 444.585 388.091 444.592 388.219C444.6 388.347 444.635 388.473 444.696 388.588C441.016 388.782 437.325 388.403 433.787 387.468C422.881 384.494 419.727 370.744 424.526 362.421C424.947 361.658 425.465 360.942 426.069 360.286C423.701 364.831 423.698 370.126 428.949 372.158C433.991 374.111 439.237 369.918 443.769 368.726C449.838 367.131 452.467 371.602 452.519 376.342C452.649 378.616 452.023 380.872 450.721 382.823C449.419 384.773 447.5 386.328 445.211 387.289Z" fill="#191919"/>
<path d="M471.148 249.521C470.95 247.758 467.826 247.669 468.062 249.521C469.071 257.513 459.116 258.273 452.829 259.077C450.632 259.23 448.528 259.937 446.756 261.117C445.113 262.378 444.016 264.121 443.659 266.038C443.302 267.956 443.707 269.926 444.802 271.601C444.802 271.693 444.904 271.693 445.006 271.787C444.832 271.79 444.661 271.824 444.502 271.888C444.343 271.952 444.2 272.044 444.082 272.158C443.567 271.509 442.424 271.038 441.713 271.787C424.527 289.969 411.424 309.179 398.487 318.173C397.672 318.739 398.591 319.935 399.414 319.844C399.586 319.934 399.781 319.982 399.98 319.982C400.18 319.982 400.375 319.934 400.547 319.844C418.687 309.061 435.765 296.893 451.594 283.475C451.8 283.473 452.004 283.432 452.192 283.354C452.379 283.277 452.547 283.164 452.683 283.024C452.819 282.884 452.921 282.72 452.981 282.542C453.042 282.364 453.06 282.177 453.035 281.992C452.962 279.948 452.284 277.958 451.071 276.23C449.859 274.501 448.156 273.095 446.139 272.158C446.338 272.111 446.524 272.025 446.682 271.906C446.841 271.787 446.969 271.639 447.057 271.471C447.145 271.303 447.192 271.12 447.193 270.934C447.195 270.748 447.151 270.565 447.066 270.396C444.946 266.202 446.845 263.299 451.594 262.139C457.697 260.645 464.034 261.783 468.989 256.573C468.474 257.128 469.486 261.303 469.503 262.231C469.555 268.819 464.374 279.013 455.508 277.911C455.275 277.86 455.033 277.853 454.798 277.891C454.562 277.929 454.338 278.01 454.139 278.13C453.941 278.25 453.772 278.407 453.644 278.589C453.515 278.771 453.431 278.975 453.395 279.189C453.359 279.402 453.373 279.619 453.435 279.828C453.498 280.036 453.608 280.23 453.758 280.398C453.909 280.566 454.096 280.704 454.309 280.803C454.521 280.901 454.754 280.959 454.993 280.973C462.2 281.569 467.058 277.089 470.224 271.789C474.371 264.843 471.998 257.034 471.148 249.521ZM449.638 281.434C437.203 291.975 424.074 301.831 410.323 310.949C417.701 303.781 437.208 281.542 443.771 273.653C443.896 273.821 444.075 273.951 444.285 274.024C445.789 274.763 447.066 275.826 448 277.12C448.934 278.413 449.497 279.896 449.638 281.434Z" fill="#191919"/>
<path d="M422.378 223.545C423.593 222.597 424.821 221.667 425.979 220.577C426.886 219.723 425.671 218.164 424.54 218.908C423.239 219.693 422.001 220.561 420.835 221.504C419.707 222.344 418.089 223.186 417.54 224.38C417.434 224.565 417.389 224.772 417.41 224.979C417.431 225.186 417.517 225.383 417.657 225.548C417.798 225.712 417.987 225.837 418.204 225.908C418.42 225.979 418.654 225.993 418.879 225.948C420.221 225.379 421.414 224.56 422.378 223.545Z" fill="#191919"/>
<path d="M412.484 230.874C412.649 230.628 412.698 230.333 412.621 230.054C412.545 229.775 412.348 229.534 412.075 229.386C411.802 229.237 411.474 229.193 411.165 229.262C410.855 229.331 410.589 229.508 410.424 229.754C408.371 232.801 406.575 232.709 406.411 234.487C406.309 234.857 406.823 235.415 407.236 235.507C409.601 235.791 411.557 232.55 412.484 230.874Z" fill="#191919"/>
<path d="M361.334 254.624C359.335 255.869 357.103 256.779 354.746 257.312C354.484 257.385 354.259 257.54 354.112 257.748C353.965 257.957 353.904 258.206 353.941 258.451C353.979 258.696 354.111 258.921 354.316 259.086C354.52 259.252 354.783 259.346 355.057 259.353C358.014 259.407 360.883 258.446 363.084 256.665C364.42 255.643 362.775 253.974 361.334 254.624Z" fill="#191919"/>
<path d="M329.224 256.202C333.712 264.431 332.49 274.773 329.843 283.384C329.766 283.666 329.793 283.962 329.918 284.229C330.044 284.496 330.262 284.719 330.54 284.866C330.817 285.012 331.14 285.073 331.46 285.04C331.78 285.007 332.079 284.882 332.313 284.683C335.945 281.494 339.251 278.016 342.191 274.292C350.836 270.952 359.38 267.334 368.231 264.55C365.967 269.003 363.806 273.55 361.952 278.095C361.85 278.095 361.644 278.003 361.437 278.095C358.174 278.358 354.996 279.177 352.071 280.508C350.416 281.328 351.661 283.294 353.314 283.106C355.682 282.833 358.05 282.363 360.416 281.986C358.975 285.696 357.802 289.425 356.505 293.119C356.414 293.342 356.415 293.587 356.51 293.809C356.605 294.031 356.786 294.214 357.019 294.324C357.063 294.452 357.138 294.571 357.238 294.67C357.337 294.77 357.46 294.849 357.597 294.903C357.734 294.956 357.882 294.981 358.031 294.978C358.18 294.974 358.327 294.941 358.46 294.882C384.088 287.266 394.296 262.55 396.953 240.517C397.075 239.498 395.71 239.025 394.895 239.397C390.345 241.494 385.838 243.85 381.412 246.077C381.327 245.953 381.21 245.849 381.072 245.774C380.933 245.699 380.776 245.655 380.615 245.646C380.454 245.636 380.292 245.662 380.144 245.721C379.996 245.779 379.866 245.869 379.764 245.983C376.252 250.892 373.056 255.98 370.194 261.221H369.782C360.1 263.817 350.804 267.462 342.097 272.076C341.76 271.911 341.369 271.858 340.993 271.926C340.617 271.994 340.279 272.179 340.039 272.448C338.158 274.778 336.131 277.008 333.966 279.128C335.613 271.705 335.921 263.448 332.835 256.491C331.537 253.72 329.988 251.052 328.203 248.512C330.054 249.632 331.93 250.72 333.759 251.851C335.834 253.131 339.226 256.219 341.89 256.305C344.979 256.405 350.941 252.862 353.624 251.668C383.261 238.465 404.502 222.87 430.814 204.724C434.79 201.987 437.476 200.002 442.135 199.621C443.678 201.848 445.117 203.983 446.663 206.209C446.869 209.641 441.01 215.953 438.944 218.547C428.972 231.073 418.712 238.79 404.776 247.492C403.859 248.064 404.666 249.338 405.598 248.883C414.732 244.228 423.028 238.347 430.2 231.443C436.87 225.209 444.812 217.062 448.315 208.805C450.164 204.444 449.869 198.748 443.785 197.487C435.463 195.764 426.408 204.655 420.63 208.619C413.443 213.559 406.205 218.446 398.914 223.278C399.12 214.186 401.692 193.591 387.9 192.2C387.688 192.198 387.48 192.249 387.299 192.347C387.117 192.445 386.969 192.587 386.871 192.756C385.332 196.053 384.461 199.573 384.299 203.147C384.081 202.908 383.779 202.741 383.443 202.674C383.108 202.606 382.756 202.642 382.446 202.775C379.252 203.747 376.152 204.953 373.176 206.382C371.735 207.125 372.766 208.899 374.205 208.702C377.395 208.171 380.528 207.394 383.571 206.382C383.756 206.311 383.929 206.217 384.086 206.104C383.28 216.97 382.875 225.16 379.968 231.709C379.558 232.637 381.101 233.1 381.707 232.359C387.368 224.295 385.624 212.506 386.958 203.322C387.266 201.187 386.658 194.947 390.972 196.179C394.478 197.178 395.693 204.993 395.912 207.217C396.274 213.341 396.136 219.48 395.499 225.585C365.466 244.957 354.84 247.905 345.275 252.302C340.968 254.282 341.135 253.355 337.246 251.005C333.001 248.44 328.757 245.83 324.381 243.304C323.059 242.54 321.707 244.045 322.323 245.158C324.832 248.731 327.135 252.417 329.224 256.202ZM380.167 249.058C380.602 249.058 386.305 246.292 393.959 242.842C390.571 262.973 381.611 283.106 359.894 291.909C365.007 277.038 371.799 262.678 380.167 249.058Z" fill="#191919"/>
<path d="M42.1731 380.148C35.8736 362.743 57.9354 361.235 67.9027 352.13C74.1898 346.386 75.4149 338.864 75.1092 331.257C76.5505 330.886 78.0018 330.543 79.4331 330.137C80.9863 329.703 80.862 328.11 79.4331 327.167C75.3776 324.493 73.2206 321.726 72.1248 322.714C69.9314 325.212 67.9384 327.848 66.1608 330.601C65.2388 331.721 66.782 332.937 68.0121 332.734C69.5627 332.478 70.9941 332.178 72.5422 331.9C73.2356 346.933 65.8203 352.363 52.7815 358.525C43.1994 363.061 35.4909 370.312 40.3267 380.616C40.3529 380.733 40.4056 380.843 40.4815 380.941C40.5574 381.039 40.6549 381.122 40.7678 381.184C40.8808 381.246 41.0067 381.286 41.1378 381.303C41.2689 381.319 41.4023 381.311 41.5297 381.279C41.6572 381.246 41.7758 381.191 41.8782 381.115C41.9807 381.04 42.0647 380.946 42.1251 380.84C42.1855 380.733 42.2209 380.617 42.2292 380.498C42.2374 380.379 42.2183 380.26 42.1731 380.148Z" fill="#191919"/>
<path d="M433.379 325.783C434.095 324.759 432.362 323.935 431.639 324.855C424.137 334.299 413.747 336.71 401.484 335.525C395.619 334.958 389.755 335.433 387.178 340.997C384.3 347.215 387.782 354.544 388.825 360.852C389.839 366.976 389.571 373.759 384.708 378.571C383.593 379.741 382.16 380.628 380.548 381.146C378.937 381.663 377.203 381.793 375.52 381.521C373.836 381.25 372.259 380.587 370.947 379.598C369.634 378.609 368.631 377.328 368.036 375.883C369.683 375.697 372.26 375.791 373.388 374.583C375.036 372.823 373.672 368.836 373.388 366.79C371.296 351.753 367.337 347.17 366.182 337.939C366.137 337.687 366.018 337.45 365.837 337.253C365.656 337.056 365.42 336.906 365.153 336.819C378.572 331.723 373.123 310.504 358.876 305.276C335.02 296.519 327.384 334.685 348.377 336.819C348.993 336.819 347.599 335.267 352.803 356.95C353.648 360.471 354.219 364.006 355.171 367.527C355.615 370.572 356.81 373.489 358.67 376.062C359.731 377.245 360.727 377.081 362.067 376.711C362.477 376.617 365.136 375.323 365.359 376.154C365.965 378.696 367.546 380.964 369.824 382.559C372.102 384.155 374.932 384.974 377.814 384.874C387.28 384.482 392.284 375.134 392.227 367.626C392.128 355.557 381.803 339.966 397.269 337.29C400.144 336.792 403.959 338.033 406.943 338.217C412.184 338.487 417.409 337.474 422.063 335.285C426.717 333.096 430.627 329.813 433.379 325.783ZM361.851 334.783C362.048 334.705 362.213 334.574 362.324 334.407C362.434 334.241 362.484 334.047 362.467 333.854C361.965 328.34 361.106 322.858 359.895 317.434C366.604 316.709 367.223 317.145 367.82 316.877C371.229 324.369 370.62 333.388 361.851 334.783ZM366.276 314.464C363.934 314.524 361.597 314.71 359.279 315.022C358.762 312.609 358.247 310.105 357.733 307.693C361.339 309.028 364.346 311.411 366.276 314.464ZM355.367 307.043C355.367 307.715 355.901 310.197 356.498 315.394C354.448 315.758 352.421 316.222 350.427 316.785C349.808 313.537 349.398 310.289 348.986 307.043C351.082 306.579 353.271 306.579 355.367 307.043ZM346.722 307.784C346.824 311.119 347.24 314.44 347.964 317.712C344.451 318.948 341.437 321.115 339.319 323.928C337.768 317.598 340.127 310.631 346.722 307.784ZM339.928 326.246C340.046 326.132 340.186 326.038 340.34 325.969C342.448 323.468 345.254 321.516 348.471 320.31C348.779 321.702 349.108 322.998 349.5 324.392C350.149 326.703 351.15 334.122 354.132 334.783C354.309 334.82 354.493 334.821 354.671 334.788C354.849 334.755 355.017 334.688 355.163 334.591C355.31 334.494 355.431 334.37 355.519 334.227C355.608 334.083 355.661 333.925 355.675 333.762C355.682 333.531 355.61 333.304 355.469 333.112C354.368 329.042 351.548 323.46 351.043 319.381C352.94 318.734 354.906 318.268 356.91 317.99C357.631 323.464 358.635 328.921 359.892 334.225C359.944 334.429 360.058 334.616 360.222 334.764C360.386 334.912 360.593 335.015 360.819 335.061C357.099 335.22 353.37 335.002 349.704 334.411C349.536 334.377 349.361 334.385 349.198 334.434C349.034 334.483 348.889 334.571 348.777 334.689C346.647 334.044 344.726 332.936 343.183 331.464C341.64 329.991 340.522 328.2 339.928 326.246Z" fill="#191919"/>
</g>
</g>
<defs>
<clipPath id="clip0_224_2109">
<rect width="527" height="610" fill="white"/>
</clipPath>
<clipPath id="clip1_224_2109">
<rect width="473" height="382" fill="white" transform="translate(0 192)"/>
</clipPath>
</defs>
</svg>
